<svg width="40" height="40" viewBox="0 0 40 40" fill="none" xmlns="http://www.w3.org/2000/svg">
<circle cx="20" cy="20" r="19" stroke="black" stroke-width="2"/>
<g clip-path="url(#clip0_114_93)">
<path d="M23.75 12.5H16.25C14.1789 12.5 12.5 14.1789 12.5 16.25V23.75C12.5 25.8211 14.1789 27.5 16.25 27.5H23.75C25.8211 27.5 27.5 25.8211 27.5 23.75V16.25C27.5 14.1789 25.8211 12.5 23.75 12.5Z" stroke="black" stroke-width="2" stroke-linecap="round" stroke-linejoin="round"/>
<path d="M23 19.5275C23.0926 20.1517 22.986 20.7892 22.6953 21.3493C22.4047 21.9094 21.9449 22.3636 21.3812 22.6473C20.8176 22.9309 20.1789 23.0297 19.5559 22.9294C18.9329 22.8292 18.3573 22.5351 17.9112 22.0889C17.465 21.6427 17.1708 21.0672 17.0706 20.4442C16.9703 19.8212 17.0691 19.1824 17.3528 18.6188C17.6365 18.0551 18.0907 17.5953 18.6508 17.3047C19.2109 17.0141 19.8483 16.9074 20.4725 17C21.1092 17.0944 21.6987 17.3911 22.1538 17.8462C22.6089 18.3014 22.9056 18.8908 23 19.5275Z" stroke="black" stroke-width="2" stroke-linecap="round" stroke-linejoin="round"/>
<path d="M24.125 15.875H24.1333" stroke="black" stroke-width="2" stroke-linecap="round" stroke-linejoin="round"/>
</g>
<defs>
<clipPath id="clip0_114_93">
<rect width="18" height="18" fill="white" transform="translate(11 11)"/>
</clipPath>
</defs>
</svg>
