<svg width="40" height="40" viewBox="0 0 40 40" fill="none" xmlns="http://www.w3.org/2000/svg">
<circle cx="20" cy="20" r="19" stroke="black" stroke-width="2"/>
<path d="M23 17C24.1935 17 25.3381 17.4741 26.182 18.318C27.0259 19.1619 27.5 20.3065 27.5 21.5V26.75H24.5V21.5C24.5 21.1022 24.342 20.7206 24.0607 20.4393C23.7794 20.158 23.3978 20 23 20C22.6022 20 22.2206 20.158 21.9393 20.4393C21.658 20.7206 21.5 21.1022 21.5 21.5V26.75H18.5V21.5C18.5 20.3065 18.9741 19.1619 19.818 18.318C20.6619 17.4741 21.8065 17 23 17V17Z" stroke="black" stroke-width="2" stroke-linecap="round" stroke-linejoin="round"/>
<path d="M15.5 17.75H12.5V26.75H15.5V17.75Z" stroke="black" stroke-width="2" stroke-linecap="round" stroke-linejoin="round"/>
<path d="M14 15.5C14.8284 15.5 15.5 14.8284 15.5 14C15.5 13.1716 14.8284 12.5 14 12.5C13.1716 12.5 12.5 13.1716 12.5 14C12.5 14.8284 13.1716 15.5 14 15.5Z" stroke="black" stroke-width="2" stroke-linecap="round" stroke-linejoin="round"/>
</svg>
